<svg version="1.2" xmlns="http://www.w3.org/2000/svg" viewBox="0 0 1024 1024" width="1024" height="1024">
	<style>
		.s0 { fill: #ffffff } 
		.s1 { fill: #ffec00 } 
		.s2 { fill: #ffcc00 } 
		.s3 { fill: #ff9c00 } 
	</style>
	<path id="Layer 1" fill-rule="evenodd" class="s0" d="m511.98 1023.45c-282.84 0-511.46-228.62-511.46-511.47 0-282.84 228.62-511.46 511.46-511.46 282.85 0 511.47 228.62 511.47 511.46 0 282.85-228.62 511.47-511.47 511.47z"/>
	<path id="Layer 1 copy" fill-rule="evenodd" class="s1" d="m512 988.5c-263.5 0-476.49-213-476.49-476.5 0-263.5 212.99-476.49 476.49-476.49 263.5 0 476.5 212.99 476.5 476.49 0 263.5-213 476.5-476.5 476.5z"/>
	<path id="Layer 1 copy 2" fill-rule="evenodd" class="s2" d="m512 834.4c-178.28 0-322.39-144.11-322.39-322.4 0-178.28 144.11-322.39 322.39-322.39 178.29 0 322.4 144.11 322.4 322.39 0 178.29-144.11 322.4-322.4 322.4z"/>
	<path id="Layer 1 copy 3" fill-rule="evenodd" class="s3" d="m512 697.23c-102.43 0-185.23-82.79-185.23-185.23 0-102.43 82.8-185.23 185.23-185.23 102.44 0 185.23 82.8 185.23 185.23 0 102.44-82.79 185.23-185.23 185.23z"/>
</svg>